<?xml version="1.0" encoding="UTF-8"?>
<svg width="1169px" height="150px" viewBox="0 0 1169 150" version="1.1" xmlns="http://www.w3.org/2000/svg" xmlns:xlink="http://www.w3.org/1999/xlink">
    <!-- Generator: Sketch 47.1 (45422) - http://www.bohemiancoding.com/sketch -->
    <title>bitnami-pattern-lib</title>
    <desc>Created with Sketch.</desc>
    <defs></defs>
    <g id="Page-1" stroke="none" stroke-width="1" fill="none" fill-rule="evenodd">
        <g id="bitnami-pattern-lib">
            <g id="Logo-/-Icon-/-White" transform="translate(5.000000, 3.000000)" fill="#FFFFFE">
                <g id="Bitnami-Logo-White">
                    <g id="logo">
                        <polyline id="Fill-10" points="79.3972777 80.5022021 79.3972777 62.6067802 63.8447423 53.660913 48.292207 62.6067802 48.292207 80.5022021 63.8442797 89.451757 79.3972777 80.5022021"></polyline>
                        <path d="M125.899428,36.142557 C124.694182,33.9612903 122.894871,32.1547848 120.529257,30.7944893 C104.028256,21.3023836 87.5263286,11.8111998 71.0253269,2.31863305 C66.4366002,-0.319906827 61.0525498,-0.206510459 56.6794258,2.30895288 C53.876592,3.92139392 51.0728328,5.53475688 48.2681483,7.14765888 L48.2681483,37.9642743 L63.8442797,29.0045783 L100.900167,50.3189469 L100.900167,92.9522936 L63.8442797,114.267123 L26.785616,92.9522936 C26.785616,92.9310894 26.785616,92.9089633 26.785616,92.8882201 C26.785616,68.4259499 26.785616,43.7004711 26.785616,19.2400447 L7.04224724,30.598581 C2.45120727,33.2394256 0,35.8535346 0,41.0315078 C0,74.2773869 0,66.7305359 0,99.975954 C0,102.668887 0.720834452,105.09308 1.88582877,107.143434 C3.19054838,109.438558 5.05324383,111.264424 7.11534855,112.450476 C23.5478757,121.902479 39.9794774,131.356325 56.4138552,140.807866 C61.2366911,143.583311 66.4268842,143.595757 71.2228855,140.837367 C87.6952019,131.361395 104.169369,121.885423 120.64076,112.410373 C125.254008,109.757543 127.686709,105.546666 127.686709,100.192145 C127.686709,81.3093446 127.686709,62.4283883 127.686709,43.5442053 C127.686709,40.7567751 127.075526,38.2712742 125.899428,36.142557" id="Fill-12"></path>
                    </g>
                </g>
            </g>
            <path d="M235.364325,88.0581081 C235.364325,104.148649 224.475316,112.795946 207.976817,112.795946 L173,112.795946 L173,36.1743243 L208.306787,36.1743243 C223.265426,36.1743243 232.724565,43.2891892 232.724565,56.4243243 C232.724565,62.9918919 229.644845,68.2459459 224.585306,71.3108108 C230.744745,74.0472973 235.364325,79.6297297 235.364325,88.0581081 Z M217.105986,57.6283784 C217.105986,52.8121622 214.356237,50.2945946 207.646847,50.2945946 L188.068629,50.2945946 L188.068629,64.8527027 L208.416777,64.8527027 C214.796197,64.8527027 217.105986,61.8972973 217.105986,57.6283784 Z M219.525766,88.277027 C219.525766,81.7094595 216.006086,78.4256757 208.526767,78.4256757 L188.068629,78.4256757 L188.068629,98.2378378 L208.526767,98.2378378 C216.006086,98.2378378 219.525766,94.2972973 219.525766,88.277027 Z M263.391774,41.9756757 C263.391774,37.2689189 259.432135,33.3283784 254.702565,33.3283784 C249.972995,33.3283784 246.013356,37.2689189 246.013356,41.9756757 C246.013356,46.6824324 249.972995,50.622973 254.702565,50.622973 C259.432135,50.622973 263.391774,46.6824324 263.391774,41.9756757 Z M262.291874,112.795946 L262.291874,55.3297297 L247.113256,55.3297297 L247.113256,112.795946 L262.291874,112.795946 Z M310.007532,95.172973 C306.267872,98.3472973 304.178063,99.5513514 301.428313,99.5513514 C297.798643,99.5513514 295.818823,98.1283784 295.818823,92.6554054 L295.818823,69.5594595 L309.677562,69.5594595 L309.677562,55.3297297 L295.818823,55.3297297 L295.818823,33 L280.640205,40.5527027 L280.640205,55.3297297 L270.961085,55.3297297 L270.961085,69.5594595 L280.640205,69.5594595 L280.640205,96.7054054 C280.640205,106.775676 286.689654,114 296.038803,114 C300.768373,114 305.277963,112.467568 307.807732,110.497297 L310.007532,95.172973 Z M372.241869,112.795946 L372.241869,80.3959459 C372.241869,64.1959459 365.642469,54.1256757 350.903811,54.1256757 C344.854361,54.1256757 340.014801,56.4243243 337.375042,59.1608108 L337.375042,55.3297297 L322.196423,55.3297297 L322.196423,112.795946 L337.375042,112.795946 L337.375042,81.3810811 C337.375042,71.4202703 341.004711,68.3554054 347.274141,68.3554054 C353.54357,68.3554054 357.06325,71.4202703 357.06325,81.7094595 L357.06325,112.795946 L372.241869,112.795946 Z M431.396486,112.795946 L416.217867,112.795946 L416.217867,108.964865 C413.468117,111.810811 408.628558,114 403.239048,114 C392.460029,114 381.68101,107.432432 381.68101,93.5310811 C381.68101,80.8337838 392.020069,74.4851351 405.108878,74.4851351 C410.388397,74.4851351 413.798087,75.5797297 416.217867,76.7837838 L416.217867,73.9378378 C416.217867,69.8878378 413.468117,66.6040541 407.968618,66.6040541 C401.039248,66.6040541 397.409579,67.5891892 392.130059,70.4351351 L386.300589,59.927027 C393.009979,56.0959459 398.619468,54.1256757 407.968618,54.1256757 C421.937346,54.1256757 431.396486,61.35 431.396486,74.2662162 L431.396486,112.795946 Z M416.217867,95.9391892 L416.217867,88.7148649 C413.578107,87.072973 411.048337,86.3067568 405.658828,86.3067568 C399.939348,86.3067568 396.859629,88.9337838 396.859629,93.5310811 C396.859629,97.5810811 399.169418,101.193243 405.658828,101.193243 C410.608377,101.193243 414.568017,98.6756757 416.217867,95.9391892 Z M526.29785,112.795946 L526.29785,80.3959459 C526.29785,64.1959459 520.46838,54.1256757 505.729721,54.1256757 C496.160592,54.1256757 491.321032,57.4094595 487.361393,61.4594595 C483.071783,56.2054054 478.782174,54.1256757 471.412844,54.1256757 C465.363395,54.1256757 461.403755,56.4243243 458.763995,59.1608108 L458.763995,55.3297297 L443.585376,55.3297297 L443.585376,112.795946 L458.763995,112.795946 L458.763995,81.3810811 C458.763995,71.4202703 461.843715,68.3554054 468.113144,68.3554054 C474.382574,68.3554054 477.352304,71.4202703 477.352304,81.7094595 L477.352304,112.795946 L492.530922,112.795946 L492.530922,81.3810811 C492.530922,71.4202703 495.610642,68.3554054 501.880072,68.3554054 C508.149501,68.3554054 511.119231,71.4202703 511.119231,81.7094595 L511.119231,112.795946 L526.29785,112.795946 Z M555.315209,41.9756757 C555.315209,37.2689189 551.355569,33.3283784 546.626,33.3283784 C541.89643,33.3283784 537.93679,37.2689189 537.93679,41.9756757 C537.93679,46.6824324 541.89643,50.622973 546.626,50.622973 C551.355569,50.622973 555.315209,46.6824324 555.315209,41.9756757 Z M554.215309,112.795946 L554.215309,55.3297297 L539.03669,55.3297297 L539.03669,112.795946 L554.215309,112.795946 Z M660.095674,60.4743243 C660.095674,78.2067568 648.216755,85.65 632.268206,85.65 L615.329748,85.65 L615.329748,112.795946 L599.931149,112.795946 L599.931149,36.1743243 L633.588086,36.1743243 C648.106765,36.1743243 660.095674,44.1648649 660.095674,60.4743243 Z M644.257115,60.8027027 C644.257115,54.1256757 639.857515,51.0608108 633.038136,51.0608108 L615.329748,51.0608108 L615.329748,70.7635135 L633.258116,70.7635135 C640.407465,70.7635135 644.257115,67.4797297 644.257115,60.8027027 Z M717.160481,112.795946 L701.981862,112.795946 L701.981862,108.964865 C699.232112,111.810811 694.392553,114 689.003043,114 C678.224024,114 667.445005,107.432432 667.445005,93.5310811 C667.445005,80.8337838 677.784064,74.4851351 690.872873,74.4851351 C696.152393,74.4851351 699.562082,75.5797297 701.981862,76.7837838 L701.981862,73.9378378 C701.981862,69.8878378 699.232112,66.6040541 693.732613,66.6040541 C686.803243,66.6040541 683.173574,67.5891892 677.894054,70.4351351 L672.064585,59.927027 C678.773974,56.0959459 684.383464,54.1256757 693.732613,54.1256757 C707.701342,54.1256757 717.160481,61.35 717.160481,74.2662162 L717.160481,112.795946 Z M701.981862,95.9391892 L701.981862,88.7148649 C699.342102,87.072973 696.812333,86.3067568 691.422823,86.3067568 C685.703343,86.3067568 682.623624,88.9337838 682.623624,93.5310811 C682.623624,97.5810811 684.933414,101.193243 691.422823,101.193243 C696.372373,101.193243 700.332012,98.6756757 701.981862,95.9391892 Z M763.776239,95.172973 C760.036579,98.3472973 757.946769,99.5513514 755.197019,99.5513514 C751.56735,99.5513514 749.58753,98.1283784 749.58753,92.6554054 L749.58753,69.5594595 L763.446269,69.5594595 L763.446269,55.3297297 L749.58753,55.3297297 L749.58753,33 L734.408911,40.5527027 L734.408911,55.3297297 L724.729792,55.3297297 L724.729792,69.5594595 L734.408911,69.5594595 L734.408911,96.7054054 C734.408911,106.775676 740.458361,114 749.80751,114 C754.53708,114 759.046669,112.467568 761.576439,110.497297 L763.776239,95.172973 Z M810.391997,95.172973 C806.652337,98.3472973 804.562527,99.5513514 801.812777,99.5513514 C798.183108,99.5513514 796.203288,98.1283784 796.203288,92.6554054 L796.203288,69.5594595 L810.062027,69.5594595 L810.062027,55.3297297 L796.203288,55.3297297 L796.203288,33 L781.024669,40.5527027 L781.024669,55.3297297 L771.34555,55.3297297 L771.34555,69.5594595 L781.024669,69.5594595 L781.024669,96.7054054 C781.024669,106.775676 787.074119,114 796.423268,114 C801.152837,114 805.662427,112.467568 808.192197,110.497297 L810.391997,95.172973 Z M869.656604,84.1175676 C869.656604,86.3067568 869.546614,87.8391892 869.436624,88.9337838 L834.899766,88.9337838 C835.449716,96.8148649 841.279186,99.7702703 846.778685,99.7702703 C850.958305,99.7702703 854.477985,98.2378378 856.677785,95.7202703 L867.456804,104.695946 C862.837224,110.606757 854.477985,114 846.778685,114 C830.170197,114 819.611158,102.287838 819.611158,84.1175676 C819.611158,66.4945946 830.720147,54.1256757 845.348816,54.1256757 C860.747414,54.1256757 869.656604,67.6986486 869.656604,84.1175676 Z M854.917945,77.55 C854.477985,72.4054054 851.398265,67.2608108 844.578886,67.2608108 C839.079386,67.2608108 835.669696,71.7486486 835.119746,77.55 L854.917945,77.55 Z M917.482251,58.1756757 C915.502432,56.0959459 911.762772,54.1256757 906.813222,54.1256757 C901.423713,54.1256757 897.574063,56.4243243 894.934303,59.1608108 L894.934303,55.3297297 L879.755685,55.3297297 L879.755685,112.795946 L894.934303,112.795946 L894.934303,81.7094595 C894.934303,71.7486486 898.783953,69.2310811 904.723412,69.2310811 C908.133102,69.2310811 911.102832,70.7635135 913.522612,72.9527027 L917.482251,58.1756757 Z M974.877028,112.795946 L974.877028,80.3959459 C974.877028,64.1959459 968.277629,54.1256757 953.53897,54.1256757 C947.489521,54.1256757 942.649961,56.4243243 940.010201,59.1608108 L940.010201,55.3297297 L924.831583,55.3297297 L924.831583,112.795946 L940.010201,112.795946 L940.010201,81.3810811 C940.010201,71.4202703 943.639871,68.3554054 949.9093,68.3554054 C956.17873,68.3554054 959.69841,71.4202703 959.69841,81.7094595 L959.69841,112.795946 L974.877028,112.795946 Z M1073.49805,112.795946 L1073.49805,97.6905405 L1034.89157,97.6905405 L1034.89157,36.1743243 L1019.49297,36.1743243 L1019.49297,112.795946 L1073.49805,112.795946 Z M1099.98564,41.9756757 C1099.98564,37.2689189 1096.026,33.3283784 1091.29643,33.3283784 C1086.56686,33.3283784 1082.60722,37.2689189 1082.60722,41.9756757 C1082.60722,46.6824324 1086.56686,50.622973 1091.29643,50.622973 C1096.026,50.622973 1099.98564,46.6824324 1099.98564,41.9756757 Z M1098.88574,112.795946 L1098.88574,55.3297297 L1083.70712,55.3297297 L1083.70712,112.795946 L1098.88574,112.795946 Z M1162,84.7743243 C1162,101.959459 1153.86074,114 1139.56204,114 C1134.5025,114 1130.1029,112.02973 1127.35315,109.512162 L1127.35315,112.795946 L1112.17453,112.795946 L1112.17453,40.5527027 L1127.35315,33 L1127.35315,58.9418919 C1130.21289,56.4243243 1134.06254,54.1256757 1139.56204,54.1256757 C1151.88092,54.1256757 1162,63.3202703 1162,84.7743243 Z M1146.6014,85.1027027 C1146.6014,73.2810811 1142.64176,68.3554054 1136.7023,68.3554054 C1131.97273,68.3554054 1129.55295,70.3256757 1127.35315,73.1716216 L1127.35315,94.8445946 C1129.66294,98.0189189 1133.18262,99.7702703 1137.58222,99.7702703 C1143.41169,99.7702703 1146.6014,94.7351351 1146.6014,85.1027027 Z" id="Bitnami-Pattern-Lib" fill="#FFFFFF"></path>
        </g>
    </g>
</svg>