<svg width="138" height="162" xmlns="http://www.w3.org/2000/svg"><path d="M76.465 3.19a18.49 18.49 0 0 0-.904-.507c.101.05-.378-.192-.489-.248a14.733 14.733 0 0 0-2.32-.895 12.54 12.54 0 0 0-.969-.252 13.69 13.69 0 0 0-4.656-.162c-.255.036-.463.077-.152-.797l-.773.974-.31.072A15.79 15.79 0 0 0 62.11 2.86c-.173.107-.314.19-.618.367l-4.402 2.662-1.466.888-2.936 1.775-11.61 7.027c-4.547 2.752-8.138 4.922-11.61 7.018A10218.205 10218.205 0 0 1 15.3 31.173a193481.348 193481.348 0 0 1-7.084 4.285c-2.134 1.29-3.994 3.26-5.296 5.657A16.077 16.077 0 0 0 1 48.792v64.416c0 2.763.673 5.364 1.918 7.674 1.304 2.4 3.164 4.37 5.298 5.66l6.376 3.856 4.249 2.57c4.032 2.44 7.398 4.478 10.624 6.435 3.474 2.097 7.065 4.267 11.611 7.019 1.61.973 9.431 5.708 11.61 7.026 1.225.74 2.203 1.332 4.403 2.664l4.388 2.654c.318.185.46.268.588.35a16.293 16.293 0 0 0 3.579 1.45c.067.02.14.037.243.06l.079.018c.113.025.17.037.22.05.478.103.686.144.938.18 1.236.168 2.482.168 3.71 0 .339-.049.663-.11 1.238-.237.513-.12.907-.23 1.271-.357a14.539 14.539 0 0 0 1.73-.715l.475-.241c.306-.16.612-.332.915-.513a480244.647 480244.647 0 0 1 35.605-21.545l17.785-10.764c.348-.218.627-.4.943-.613a14.04 14.04 0 0 0 4.384-5.01c1.204-2.273 1.82-4.94 1.82-7.937V49.058c0-2.997-.616-5.664-1.823-7.943a14.03 14.03 0 0 0-3.637-4.444 15.632 15.632 0 0 0-1.675-1.165c-14.827-8.977-26.695-16.158-53.4-32.315z" stroke="#979797" stroke-width="2" fill="none" fill-rule="evenodd"/></svg>