<svg width="60" height="60" xmlns="http://www.w3.org/2000/svg" xmlns:xlink="http://www.w3.org/1999/xlink"><defs><path id="a" d="M.382 0h24.2v24.696H.382V0z"/></defs><g fill="none" fill-rule="evenodd"><path d="M20.993 47.392c-4.723 0-8.565-3.843-8.565-8.565 0-4.723 3.842-8.565 8.565-8.565 4.723 0 8.565 3.842 8.565 8.565 0 4.722-3.842 8.565-8.565 8.565m20.513-3.713l-3.36-1.936a17.482 17.482 0 0 0-.01-5.833l3.348-1.935a1 1 0 0 0 .366-1.366l-5.044-8.738a.995.995 0 0 0-.612-.466.981.981 0 0 0-.763.106l-3.265 1.93c-1.464-1.262-2.947-2.26-4.95-2.941v-3.543a1 1 0 0 0-1-1H16.13a1 1 0 0 0-1 1v3.54c-1.862.626-3.49 1.562-5.137 2.954l-3.409-1.948a.998.998 0 0 0-1.36.367L.155 32.607a.999.999 0 0 0 .364 1.367l3.34 1.935a17.386 17.386 0 0 0-.252 2.918c0 .976.082 1.955.245 2.917L.5 43.679a1 1 0 0 0-.366 1.366l5.042 8.738c.275.474.88.637 1.358.37l3.456-1.951c1.645 1.39 3.274 2.329 5.14 2.955V59a1 1 0 0 0 1 1h10.086a1 1 0 0 0 1-1v-3.844c2.001-.683 3.486-1.682 4.955-2.945l3.31 1.935a1 1 0 0 0 1.372-.365l5.02-8.738a.999.999 0 0 0-.367-1.364" fill="#1F9CD8"/><g transform="translate(35)"><mask id="b" fill="#fff"><use xlink:href="#a"/></mask><path d="M12.472 17.13a4.789 4.789 0 0 1-4.783-4.782 4.787 4.787 0 0 1 4.783-4.781 4.787 4.787 0 0 1 4.783 4.78 4.789 4.789 0 0 1-4.783 4.784m11.609-2.16l-1.9-1.092a9.963 9.963 0 0 0 .117-1.531c0-.503-.042-1.017-.126-1.533l1.888-1.09a1.004 1.004 0 0 0 .366-1.365l-2.521-4.37a1.001 1.001 0 0 0-1.38-.357l-1.797 1.075a10.07 10.07 0 0 0-2.555-1.517V1a1 1 0 0 0-1-1h-5.044a1 1 0 0 0-1 1v2.188a10.893 10.893 0 0 0-2.741 1.537L4.44 3.62a.999.999 0 0 0-1.357.367L.54 8.357a.998.998 0 0 0 .363 1.368l1.878 1.088a9.468 9.468 0 0 0-.13 1.535 9.7 9.7 0 0 0 .124 1.533L.883 14.97a.999.999 0 0 0-.367 1.367l2.522 4.369a1 1 0 0 0 1.353.373l1.99-1.111c.78.613 1.736 1.148 2.748 1.543v2.184a1 1 0 0 0 1 1h5.044a1 1 0 0 0 1-1v-2.19c.912-.37 1.78-.885 2.562-1.521l1.84 1.084a.998.998 0 0 0 1.376-.366l2.5-4.37a1 1 0 0 0-.37-1.362" fill="#1F9CD8" mask="url(#b)"/></g></g></svg>