<svg width="136" height="160" xmlns="http://www.w3.org/2000/svg"><path d="M136 111.548c0 3.125-.647 5.916-1.908 8.301a14.84 14.84 0 0 1-3.839 4.7c-.25.203-.51.393-.772.584-.386.263-.681.452-.988.644-17.535 10.64-35.082 21.278-52.628 31.918-.318.19-.636.37-.954.537-.33.167-.648.334-.977.477-.443.203-.886.37-1.329.525-.443.155-.897.274-1.351.381-.648.143-.977.203-1.306.25a14.451 14.451 0 0 1-3.93 0c-.34-.047-.67-.118-1-.19-.204-.049-.397-.084-.601-.143a16.976 16.976 0 0 1-3.725-1.515c-.193-.12-.398-.238-.602-.358-2.896-1.753-5.78-3.506-8.677-5.26-7.632-4.628-15.252-9.255-22.884-13.871-6.985-4.248-13.958-8.47-20.943-12.703-2.203-1.336-4.179-3.387-5.576-5.964a16.902 16.902 0 0 1-2.01-8.05V48.19c0-3.03.772-5.75 2.01-8.051 1.397-2.577 3.373-4.628 5.576-5.964 6.985-4.234 13.958-8.457 20.943-12.703C36.16 16.856 43.78 12.23 51.413 7.601c2.896-1.754 5.78-3.507 8.677-5.26.204-.12.409-.239.602-.358A16.57 16.57 0 0 1 64.394.48c.205-.06.42-.107.625-.155.33-.072.658-.143 1-.19a14.451 14.451 0 0 1 3.929 0c.33.047.658.107.976.166.58.131.818.203 1.057.274.658.191 1.306.43 1.953.716.33.143.647.31.977.477.318.167.636.346.954.537 17.546 10.64 35.093 21.278 52.628 31.918a16.793 16.793 0 0 1 1.76 1.229 14.84 14.84 0 0 1 3.839 4.699c1.26 2.385 1.908 5.176 1.908 8.301v63.096z" fill="#FFF" fill-rule="evenodd"/></svg>